<?xml version="1.0" standalone="no"?>
<!DOCTYPE svg PUBLIC "-//W3C//DTD SVG 20010904//EN"
 "http://www.w3.org/TR/2001/REC-SVG-20010904/DTD/svg10.dtd">
<svg version="1.0" xmlns="http://www.w3.org/2000/svg"
 width="947.000000pt" height="947.000000pt" viewBox="0 0 947.000000 947.000000"
 preserveAspectRatio="xMidYMid meet">
<metadata>
Created by potrace 1.14, written by Peter Selinger 2001-2017
</metadata>
<g transform="translate(0.000000,947.000000) scale(0.100000,-0.100000)"
fill="#000000" stroke="none">
<path d="M6034 8440 c-11 -4 -46 -25 -78 -45 l-57 -36 2 -425 c1 -233 -1 -427
-4 -430 -3 -4 -6 186 -7 421 0 251 -4 433 -10 440 -5 6 -45 26 -89 44 l-81 33
-152 -90 c-84 -49 -169 -99 -188 -110 -19 -11 -98 -57 -175 -102 -77 -46 -157
-93 -177 -104 -20 -12 -148 -87 -285 -167 -291 -172 -305 -180 -508 -299 -16
-9 -102 -59 -190 -109 -88 -51 -167 -98 -175 -105 -8 -7 -56 -37 -107 -65 -51
-29 -97 -58 -102 -65 -6 -7 -11 -28 -13 -49 -2 -31 -5 -36 -23 -32 -12 3 -46
-11 -90 -38 l-70 -44 3 -1223 c1 -742 6 -1228 12 -1235 5 -6 45 -26 90 -44 75
-31 81 -32 104 -18 13 9 26 13 30 10 5 -5 -2 -52 -9 -61 -2 -2 -25 9 -52 24
l-49 27 -72 -42 c-40 -23 -75 -48 -78 -55 -3 -8 -24 -3 -72 20 -98 46 -110 47
-164 16 -80 -46 -500 -293 -548 -322 -25 -16 -61 -37 -80 -48 -19 -11 -327
-192 -684 -402 -358 -210 -660 -387 -673 -393 -28 -13 -34 -32 -36 -123 l-2
-69 110 -67 c61 -36 126 -75 145 -86 19 -10 112 -64 205 -119 94 -55 298 -175
455 -267 157 -92 292 -172 300 -177 26 -15 393 -231 427 -250 17 -10 129 -75
248 -144 119 -70 222 -124 228 -121 68 33 134 76 143 94 8 16 13 19 17 10 2
-7 41 -28 85 -47 l81 -33 58 33 c32 19 67 39 78 46 11 7 31 18 45 25 14 7 30
16 35 21 13 10 296 177 300 177 2 0 32 17 67 39 35 21 128 77 208 124 80 46
257 151 394 231 136 81 262 155 280 164 17 10 108 63 201 118 94 56 218 129
277 164 59 34 112 68 117 74 5 6 11 35 13 63 2 29 7 55 10 58 4 4 26 -5 51
-19 50 -30 55 -29 142 24 28 16 55 32 61 36 7 3 45 -9 85 -26 65 -27 76 -29
103 -18 17 6 33 15 36 18 5 6 338 204 392 233 13 7 100 58 193 114 94 55 186
110 205 120 19 11 69 40 110 65 41 25 143 85 225 133 210 123 423 248 538 317
54 32 99 58 101 58 7 0 222 132 233 143 6 7 14 47 18 89 5 72 4 78 -17 93 -21
15 -493 294 -598 353 -25 14 -99 57 -165 97 -66 39 -147 86 -180 105 -33 18
-62 36 -65 40 -3 3 -16 11 -30 18 -14 6 -32 16 -40 22 -17 11 -492 289 -560
328 -25 13 -57 33 -72 43 -14 11 -28 19 -31 19 -4 0 -307 178 -314 184 -2 2
185 114 303 181 28 17 177 104 331 194 391 230 391 230 460 273 34 21 65 38
67 38 2 0 40 22 83 48 43 27 90 55 105 63 67 35 655 384 670 398 12 11 19 40
24 93 l6 76 -53 35 c-30 19 -88 53 -129 77 -41 24 -102 60 -135 80 -33 20
-100 60 -150 89 -49 28 -97 56 -105 61 -8 5 -186 109 -395 231 -209 122 -443
259 -520 304 -77 45 -207 122 -290 170 -82 48 -162 96 -177 106 -15 11 -29 19
-32 19 -3 0 -32 16 -65 35 -32 19 -61 35 -63 34 -2 0 -12 -4 -24 -9z m-129
-982 c-7 -32 -12 -31 -13 2 0 17 3 28 8 25 5 -3 7 -15 5 -27z m1 -68 c-3 -43
-14 -48 -14 -6 0 20 4 36 8 36 5 0 7 -13 6 -30z m-1 -159 c0 -60 -2 -112 -5
-115 -3 -3 -6 47 -6 109 0 63 2 115 6 115 3 0 5 -49 5 -109z m2 -151 c1 -11
-1 -22 -5 -24 -4 -2 -8 7 -8 20 -1 13 1 24 5 24 4 0 7 -9 8 -20z m3 -59 c0
-11 -4 -22 -8 -25 -4 -2 -8 6 -8 20 0 13 4 24 8 24 4 0 8 -9 8 -19z m0 -51 c0
-5 -4 -10 -10 -10 -5 0 -10 5 -10 10 0 6 5 10 10 10 6 0 10 -4 10 -10z m0 -80
c0 -5 -4 -10 -10 -10 -5 0 -10 5 -10 10 0 6 5 10 10 10 6 0 10 -4 10 -10z m-2
-62 c1 -26 -2 -38 -6 -30 -5 7 -7 23 -6 35 1 12 3 25 3 30 3 22 8 1 9 -35z m0
-118 c2 -38 -1 -70 -5 -70 -4 0 -8 32 -8 70 -1 91 10 91 13 0z m47 -826 c22
-11 53 -25 69 -30 l29 -10 -63 -38 -64 -37 -45 17 c-25 9 -50 21 -55 25 -6 5
-18 9 -28 9 -33 0 -18 18 42 52 l60 32 -1 321 c0 176 2 340 3 365 1 25 5 -119
8 -320 l5 -365 40 -21z m-215 -63 c0 -5 -7 -11 -15 -15 -15 -5 -20 5 -8 17 9
10 23 9 23 -2z"/>
</g>
</svg>
